<?xml version="1.0" encoding="UTF-8"?>
<!DOCTYPE svg PUBLIC "-//W3C//DTD SVG 1.1//EN" "http://www.w3.org/Graphics/SVG/1.1/DTD/svg11.dtd">
<svg xmlns="http://www.w3.org/2000/svg" version="1.1" width="192px" height="192px" style="shape-rendering:geometricPrecision; text-rendering:geometricPrecision; image-rendering:optimizeQuality; fill-rule:evenodd; clip-rule:evenodd" xmlns:xlink="http://www.w3.org/1999/xlink">
<g><path style="opacity:0.995" fill="#a8d4fc" d="M 3.5,-0.5 C 12.8333,-0.5 22.1667,-0.5 31.5,-0.5C 31.5,2.5 31.5,5.5 31.5,8.5C 25.1653,9.93411 18.8319,11.4341 12.5,13C 8.78031,15.9849 4.44697,17.1516 -0.5,16.5C -0.5,12.1667 -0.5,7.83333 -0.5,3.5C 0.833333,2.16667 2.16667,0.833333 3.5,-0.5 Z"/></g>
<g><path style="opacity:1" fill="#a9d5fc" d="M 82.5,-0.5 C 96.8333,-0.5 111.167,-0.5 125.5,-0.5C 125.5,13.5 125.5,27.5 125.5,41.5C 120.975,40.8463 116.475,39.8463 112,38.5C 108.805,39.1782 105.638,40.0115 102.5,41C 98.9535,43.2952 94.9535,44.4619 90.5,44.5C 90.1043,47.0444 90.771,49.2111 92.5,51C 98.0545,50.9869 103.388,51.9869 108.5,54C 113.823,54.4994 119.156,54.666 124.5,54.5C 124.81,57.7131 124.477,60.7131 123.5,63.5C 121.009,61.6479 118.509,59.6479 116,57.5C 114.933,58.1905 113.766,58.6905 112.5,59C 92.9512,58.5172 73.2846,59.0172 53.5,60.5C 52.9017,61.7946 52.4017,63.1279 52,64.5C 51.8272,58.6518 51.3272,52.9851 50.5,47.5C 50.0269,46.0937 49.0269,45.427 47.5,45.5C 43.7016,44.5166 39.7016,44.1832 35.5,44.5C 35.5,39.8333 35.5,35.1667 35.5,30.5C 41.014,28.9542 46.6806,28.1209 52.5,28C 54.6605,27.0041 56.3272,25.5041 57.5,23.5C 58.0387,20.9584 59.372,18.7918 61.5,17C 68.9403,11.6247 75.9403,5.79137 82.5,-0.5 Z"/></g>
<g><path style="opacity:1" fill="#aad5fb" d="M 128.5,-0.5 C 135.5,-0.5 142.5,-0.5 149.5,-0.5C 146.532,0.969121 143.366,2.30245 140,3.5C 139.175,5.7008 139.675,7.53413 141.5,9C 150.319,11.1376 159.319,12.1376 168.5,12C 173.131,16.5848 178.797,18.5848 185.5,18C 181.492,21.6649 177.159,24.8316 172.5,27.5C 172.664,24.8127 172.497,22.146 172,19.5C 171.29,18.0267 170.124,17.3601 168.5,17.5C 168.352,25.4338 166.352,32.7671 162.5,39.5C 161.583,40.1272 160.583,40.4606 159.5,40.5C 157.833,40.5 156.167,40.5 154.5,40.5C 150.425,40.3986 147.925,42.3986 147,46.5C 145.898,49.905 146.732,52.5717 149.5,54.5C 150.429,55.6888 150.762,57.0222 150.5,58.5C 143.149,63.5256 135.815,68.5256 128.5,73.5C 128.5,66.5 128.5,59.5 128.5,52.5C 132.463,52.9111 136.13,52.0778 139.5,50C 140.935,47.7328 140.602,45.7328 138.5,44C 135.382,42.2725 132.049,41.4392 128.5,41.5C 128.5,27.5 128.5,13.5 128.5,-0.5 Z"/></g>
<g><path style="opacity:0.992" fill="#d9edfb" d="M 149.5,-0.5 C 162.167,-0.5 174.833,-0.5 187.5,-0.5C 188.833,0.833333 190.167,2.16667 191.5,3.5C 191.5,8.16667 191.5,12.8333 191.5,17.5C 185.777,21.8848 179.777,25.8848 173.5,29.5C 173.167,28.8333 172.833,28.1667 172.5,27.5C 177.159,24.8316 181.492,21.6649 185.5,18C 178.797,18.5848 173.131,16.5848 168.5,12C 159.319,12.1376 150.319,11.1376 141.5,9C 139.675,7.53413 139.175,5.7008 140,3.5C 143.366,2.30245 146.532,0.969121 149.5,-0.5 Z"/></g>
<g><path style="opacity:1" fill="#afd8fb" d="M 35.5,-0.5 C 46.5,-0.5 57.5,-0.5 68.5,-0.5C 62.5441,4.44723 56.5441,9.44723 50.5,14.5C 47.9159,15.3928 45.2492,15.7261 42.5,15.5C 40.4268,13.4202 38.0934,11.7536 35.5,10.5C 35.5,6.83333 35.5,3.16667 35.5,-0.5 Z"/></g>
<g><path style="opacity:1" fill="#c6e3fd" d="M 68.5,-0.5 C 73.1667,-0.5 77.8333,-0.5 82.5,-0.5C 75.9403,5.79137 68.9403,11.6247 61.5,17C 59.372,18.7918 58.0387,20.9584 57.5,23.5C 57.7394,21.5328 57.4061,19.6995 56.5,18C 51.7611,16.9486 47.0944,16.1153 42.5,15.5C 45.2492,15.7261 47.9159,15.3928 50.5,14.5C 56.5441,9.44723 62.5441,4.44723 68.5,-0.5 Z"/></g>
<g><path style="opacity:1" fill="#daeefc" d="M 31.5,8.5 C 31.5,16.5 31.5,24.5 31.5,32.5C 28.2214,33.4922 24.8881,33.6588 21.5,33C 13.7451,32.2864 6.4118,30.453 -0.5,27.5C -0.5,23.8333 -0.5,20.1667 -0.5,16.5C 4.44697,17.1516 8.78031,15.9849 12.5,13C 18.8319,11.4341 25.1653,9.93411 31.5,8.5 Z"/></g>
<g><path style="opacity:1" fill="#e3f1fd" d="M 35.5,10.5 C 38.0934,11.7536 40.4268,13.4202 42.5,15.5C 47.0944,16.1153 51.7611,16.9486 56.5,18C 57.4061,19.6995 57.7394,21.5328 57.5,23.5C 56.3272,25.5041 54.6605,27.0041 52.5,28C 46.6806,28.1209 41.014,28.9542 35.5,30.5C 35.5,23.8333 35.5,17.1667 35.5,10.5 Z"/></g>
<g><path style="opacity:1" fill="#a9d4fb" d="M -0.5,27.5 C 6.4118,30.453 13.7451,32.2864 21.5,33C 24.8881,33.6588 28.2214,33.4922 31.5,32.5C 31.5,36.5 31.5,40.5 31.5,44.5C 20.8333,44.5 10.1667,44.5 -0.5,44.5C -0.5,38.8333 -0.5,33.1667 -0.5,27.5 Z"/></g>
<g><path style="opacity:1" fill="#a9d4fb" d="M 191.5,17.5 C 191.5,21.1667 191.5,24.8333 191.5,28.5C 187.353,32.3149 182.686,35.3149 177.5,37.5C 175.797,35.1924 174.464,32.5257 173.5,29.5C 179.777,25.8848 185.777,21.8848 191.5,17.5 Z"/></g>
<g><path style="opacity:1" fill="#505459" d="M 31.5,-0.5 C 32.8333,-0.5 34.1667,-0.5 35.5,-0.5C 35.5,3.16667 35.5,6.83333 35.5,10.5C 35.5,17.1667 35.5,23.8333 35.5,30.5C 35.5,35.1667 35.5,39.8333 35.5,44.5C 39.7016,44.1832 43.7016,44.5166 47.5,45.5C 31.5,45.5 15.5,45.5 -0.5,45.5C -0.5,45.1667 -0.5,44.8333 -0.5,44.5C 10.1667,44.5 20.8333,44.5 31.5,44.5C 31.5,40.5 31.5,36.5 31.5,32.5C 31.5,24.5 31.5,16.5 31.5,8.5C 31.5,5.5 31.5,2.5 31.5,-0.5 Z"/></g>
<g><path style="opacity:1" fill="#c9e0f4" d="M 191.5,28.5 C 191.5,33.8333 191.5,39.1667 191.5,44.5C 179.391,42.7697 167.057,41.7697 154.5,41.5C 154.5,41.1667 154.5,40.8333 154.5,40.5C 156.167,40.5 157.833,40.5 159.5,40.5C 169.325,41.6583 179.325,41.8249 189.5,41C 185.789,40.8253 182.122,40.3253 178.5,39.5C 178.137,38.8165 177.804,38.1499 177.5,37.5C 182.686,35.3149 187.353,32.3149 191.5,28.5 Z"/></g>
<g><path style="opacity:1" fill="#daeefb" d="M 125.5,41.5 C 125.5,45.8333 125.5,50.1667 125.5,54.5C 125.167,54.5 124.833,54.5 124.5,54.5C 119.156,54.666 113.823,54.4994 108.5,54C 103.388,51.9869 98.0545,50.9869 92.5,51C 90.771,49.2111 90.1043,47.0444 90.5,44.5C 94.9535,44.4619 98.9535,43.2952 102.5,41C 105.638,40.0115 108.805,39.1782 112,38.5C 116.475,39.8463 120.975,40.8463 125.5,41.5 Z"/></g>
<g><path style="opacity:1" fill="#8ca2b8" d="M 172.5,27.5 C 172.833,28.1667 173.167,28.8333 173.5,29.5C 174.464,32.5257 175.797,35.1924 177.5,37.5C 177.804,38.1499 178.137,38.8165 178.5,39.5C 182.122,40.3253 185.789,40.8253 189.5,41C 179.325,41.8249 169.325,41.6583 159.5,40.5C 160.583,40.4606 161.583,40.1272 162.5,39.5C 166.352,32.7671 168.352,25.4338 168.5,17.5C 170.124,17.3601 171.29,18.0267 172,19.5C 172.497,22.146 172.664,24.8127 172.5,27.5 Z"/></g>
<g><path style="opacity:1" fill="#e0e7eb" d="M 168.5,28.5 C 169.708,29.2341 171.041,29.5674 172.5,29.5C 172.536,33.5693 173.869,37.0693 176.5,40C 172.5,40.6667 168.5,40.6667 164.5,40C 165.701,39.0975 166.535,37.9308 167,36.5C 167.272,33.7462 167.772,31.0795 168.5,28.5 Z"/></g>
<g><path style="opacity:1" fill="#d9edfc" d="M 128.5,41.5 C 132.049,41.4392 135.382,42.2725 138.5,44C 140.602,45.7328 140.935,47.7328 139.5,50C 136.13,52.0778 132.463,52.9111 128.5,52.5C 128.5,48.8333 128.5,45.1667 128.5,41.5 Z"/></g>
<g><path style="opacity:1" fill="#02030d" d="M 47.5,45.5 C 49.0269,45.427 50.0269,46.0937 50.5,47.5C 48.9731,47.573 47.9731,46.9063 47.5,45.5 Z"/></g>
<g><path style="opacity:1" fill="#b0b1b0" d="M -0.5,45.5 C 15.5,45.5 31.5,45.5 47.5,45.5C 47.9731,46.9063 48.9731,47.573 50.5,47.5C 50.5,47.8333 50.5,48.1667 50.5,48.5C 49.8333,48.5 49.5,48.8333 49.5,49.5C 48.8333,49.5 48.1667,49.5 47.5,49.5C 31.8683,47.5152 15.8683,46.8486 -0.5,47.5C -0.5,46.8333 -0.5,46.1667 -0.5,45.5 Z"/></g>
<g><path style="opacity:1" fill="#5e8861" d="M -0.5,48.5 C 15.1667,48.5 30.8333,48.5 46.5,48.5C 46.5,58.5 46.5,68.5 46.5,78.5C 30.8333,78.5 15.1667,78.5 -0.5,78.5C -0.5,68.5 -0.5,58.5 -0.5,48.5 Z"/></g>
<g><path style="opacity:1" fill="#f9fafb" d="M 154.5,41.5 C 167.057,41.7697 179.391,42.7697 191.5,44.5C 191.5,46.8333 191.5,49.1667 191.5,51.5C 190.292,52.2341 188.959,52.5674 187.5,52.5C 176.326,51.176 164.993,51.176 153.5,52.5C 163.144,53.4984 172.81,53.8318 182.5,53.5C 184.5,53.5 186.5,53.5 188.5,53.5C 187.833,57.5 187.167,61.5 186.5,65.5C 176.251,65.1806 166.084,65.5139 156,66.5C 154.775,62.1934 153.441,57.8601 152,53.5C 147.972,50.3993 147.639,46.7326 151,42.5C 152.011,41.6634 153.178,41.33 154.5,41.5 Z"/></g>
<g><path style="opacity:1" fill="#e7da75" d="M 23.5,53.5 C 28.0911,54.0189 32.7577,54.0189 37.5,53.5C 37.313,59.2124 37.6463,64.8791 38.5,70.5C 37.1667,70.5 35.8333,70.5 34.5,70.5C 34.1504,50.5778 33.1504,50.5778 31.5,70.5C 29.4078,70.4386 27.9078,69.4386 27,67.5C 26.5172,68.448 26.3505,69.448 26.5,70.5C 24.5,70.1667 22.5,69.8333 20.5,69.5C 21.6888,65.1501 21.6888,60.8167 20.5,56.5C 21.9935,55.8589 22.9935,54.8589 23.5,53.5 Z"/></g>
<g><path style="opacity:1" fill="#ebde76" d="M 3.5,53.5 C 6.8368,54.7391 10.1701,54.7391 13.5,53.5C 15.2251,54.0149 16.8917,54.6816 18.5,55.5C 17.1667,56.1667 15.8333,56.8333 14.5,57.5C 20.9679,59.2481 20.6346,60.4148 13.5,61C 15.1341,61.4935 16.8008,61.6602 18.5,61.5C 18.1274,64.5739 17.4608,67.5739 16.5,70.5C 15.448,70.6495 14.448,70.4828 13.5,70C 12.5,68.3333 11.5,66.6667 10.5,65C 12.3126,65.0464 13.9793,64.8797 15.5,64.5C 13.9547,63.5481 12.288,63.2148 10.5,63.5C 10.3879,59.6607 9.72128,59.6607 8.5,63.5C 9.05255,65.7273 9.05255,68.0607 8.5,70.5C 7.5,70.5 6.5,70.5 5.5,70.5C 5.5,69.5 5.5,68.5 5.5,67.5C 4.16667,67.5 2.83333,67.5 1.5,67.5C 1.5,66.5 1.5,65.5 1.5,64.5C 6.69446,64.0583 6.69446,63.0583 1.5,61.5C 2.83333,59.5 2.83333,57.5 1.5,55.5C 2.24269,54.8182 2.90935,54.1515 3.5,53.5 Z"/></g>
<g><path style="opacity:1" fill="#c9e6fc" d="M 150.5,58.5 C 152.234,60.6832 153.234,63.3498 153.5,66.5C 154.325,67.3857 155.325,67.719 156.5,67.5C 156.284,70.2562 155.284,72.5895 153.5,74.5C 153.141,76.371 152.141,77.871 150.5,79C 143.001,85.0016 135.668,91.1683 128.5,97.5C 128.5,89.5 128.5,81.5 128.5,73.5C 135.815,68.5256 143.149,63.5256 150.5,58.5 Z"/></g>
<g><path style="opacity:1" fill="#83817f" d="M 47.5,49.5 C 48.1667,49.5 48.8333,49.5 49.5,49.5C 49.8276,60.0135 49.4942,70.3468 48.5,80.5C 48.5,79.8333 48.1667,79.5 47.5,79.5C 47.5,69.5 47.5,59.5 47.5,49.5 Z"/></g>
<g><path style="opacity:1" fill="#acd7fa" d="M 50.5,47.5 C 51.3272,52.9851 51.8272,58.6518 52,64.5C 52.4017,63.1279 52.9017,61.7946 53.5,60.5C 73.2846,59.0172 92.9512,58.5172 112.5,59C 113.766,58.6905 114.933,58.1905 116,57.5C 118.509,59.6479 121.009,61.6479 123.5,63.5C 107.512,77.1494 90.8454,89.8161 73.5,101.5C 65.1169,94.4774 55.4503,90.4774 44.5,89.5C 44.5,87.1667 44.5,84.8333 44.5,82.5C 46.4672,82.7394 48.3005,82.4061 50,81.5C 50.4998,70.505 50.6665,59.505 50.5,48.5C 50.5,48.1667 50.5,47.8333 50.5,47.5 Z"/></g>
<g><path style="opacity:1" fill="#edf1f5" d="M 186.5,74.5 C 186.5,74.8333 186.5,75.1667 186.5,75.5C 185.2,77.223 184.533,79.3897 184.5,82C 184.628,84.7073 185.295,87.2073 186.5,89.5C 186.167,89.8333 185.833,90.1667 185.5,90.5C 175.553,91.4752 165.553,91.8085 155.5,91.5C 156.74,85.4859 156.74,79.4859 155.5,73.5C 157.104,71.8211 157.771,69.8211 157.5,67.5C 166.167,67.5 174.833,67.5 183.5,67.5C 183.5,69.1667 183.5,70.8333 183.5,72.5C 185.179,72.2852 186.179,72.9519 186.5,74.5 Z"/></g>
<g><path style="opacity:1" fill="#aed6f7" d="M 191.5,54.5 C 191.5,72.1667 191.5,89.8333 191.5,107.5C 189.167,107.5 186.833,107.5 184.5,107.5C 184.173,102.456 184.506,97.456 185.5,92.5C 186.646,91.8551 187.646,91.0217 188.5,90C 187.856,85.0664 187.19,80.233 186.5,75.5C 186.5,75.1667 186.5,74.8333 186.5,74.5C 187.097,74.2648 187.43,73.7648 187.5,73C 184.67,70.5257 184.837,68.3591 188,66.5C 188.025,62.0468 189.192,58.0468 191.5,54.5 Z"/></g>
<g><path style="opacity:1" fill="#e8db75" d="M 0.5,73.5 C 2.66485,73.1159 4.33152,73.7826 5.5,75.5C 3.95467,76.4519 2.28801,76.7852 0.5,76.5C 0.5,75.5 0.5,74.5 0.5,73.5 Z"/></g>
<g><path style="opacity:1" fill="#e3dc77" d="M 9.5,73.5 C 10.8333,73.5 12.1667,73.5 13.5,73.5C 13.5,74.5 13.5,75.5 13.5,76.5C 11.712,76.7852 10.0453,76.4519 8.5,75.5C 8.86273,74.8165 9.19607,74.1499 9.5,73.5 Z"/></g>
<g><path style="opacity:1" fill="#ebdf7c" d="M 18.5,73.5 C 19.8333,73.5 21.1667,73.5 22.5,73.5C 22.5,74.5 22.5,75.5 22.5,76.5C 20.712,76.7852 19.0453,76.4519 17.5,75.5C 17.8627,74.8165 18.1961,74.1499 18.5,73.5 Z"/></g>
<g><path style="opacity:1" fill="#e7df7a" d="M 27.5,73.5 C 28.8333,73.5 30.1667,73.5 31.5,73.5C 31.5,74.5 31.5,75.5 31.5,76.5C 29.712,76.7852 28.0453,76.4519 26.5,75.5C 26.8627,74.8165 27.1961,74.1499 27.5,73.5 Z"/></g>
<g><path style="opacity:1" fill="#e2dd7a" d="M 36.5,73.5 C 37.8333,73.5 39.1667,73.5 40.5,73.5C 40.5,74.5 40.5,75.5 40.5,76.5C 38.712,76.7852 37.0453,76.4519 35.5,75.5C 35.8627,74.8165 36.1961,74.1499 36.5,73.5 Z"/></g>
<g><path style="opacity:1" fill="#b0d9fa" d="M 91.5,105.5 C 89.1944,105.007 86.861,104.674 84.5,104.5C 83.3915,103.71 82.0581,103.21 80.5,103C 94.909,91.3796 109.409,79.8796 124,68.5C 124.961,72.501 124.295,76.1677 122,79.5C 112.543,86.6218 103.376,94.1218 94.5,102C 93.552,102.483 92.552,102.649 91.5,102.5C 91.5,103.5 91.5,104.5 91.5,105.5 Z"/></g>
<g><path style="opacity:1" fill="#889fb5" d="M 158.5,74.5 C 160.167,74.5 161.833,74.5 163.5,74.5C 163.5,79.1667 163.5,83.8333 163.5,88.5C 161.533,88.7394 159.699,88.4061 158,87.5C 157.232,83.0804 157.398,78.7471 158.5,74.5 Z"/></g>
<g><path style="opacity:1" fill="#7f98af" d="M 164.5,74.5 C 166.5,74.5 168.5,74.5 170.5,74.5C 170.5,79.1667 170.5,83.8333 170.5,88.5C 168.5,88.5 166.5,88.5 164.5,88.5C 164.5,83.8333 164.5,79.1667 164.5,74.5 Z"/></g>
<g><path style="opacity:1" fill="#7f98b0" d="M 172.5,74.5 C 174.167,74.5 175.833,74.5 177.5,74.5C 177.5,79.1667 177.5,83.8333 177.5,88.5C 175.833,88.5 174.167,88.5 172.5,88.5C 172.5,83.8333 172.5,79.1667 172.5,74.5 Z"/></g>
<g><path style="opacity:1" fill="#8099af" d="M 179.5,74.5 C 180.833,74.5 182.167,74.5 183.5,74.5C 183.5,79.1667 183.5,83.8333 183.5,88.5C 182.167,88.5 180.833,88.5 179.5,88.5C 179.5,83.8333 179.5,79.1667 179.5,74.5 Z"/></g>
<g><path style="opacity:1" fill="#89a2b9" d="M 154.5,40.5 C 154.5,40.8333 154.5,41.1667 154.5,41.5C 153.178,41.33 152.011,41.6634 151,42.5C 147.639,46.7326 147.972,50.3993 152,53.5C 153.441,57.8601 154.775,62.1934 156,66.5C 166.084,65.5139 176.251,65.1806 186.5,65.5C 187.167,61.5 187.833,57.5 188.5,53.5C 186.5,53.5 184.5,53.5 182.5,53.5C 183.919,52.5489 185.585,52.2155 187.5,52.5C 188.959,52.5674 190.292,52.2341 191.5,51.5C 191.5,52.5 191.5,53.5 191.5,54.5C 189.192,58.0468 188.025,62.0468 188,66.5C 184.837,68.3591 184.67,70.5257 187.5,73C 187.43,73.7648 187.097,74.2648 186.5,74.5C 186.179,72.9519 185.179,72.2852 183.5,72.5C 183.5,70.8333 183.5,69.1667 183.5,67.5C 174.833,67.5 166.167,67.5 157.5,67.5C 157.771,69.8211 157.104,71.8211 155.5,73.5C 156.74,79.4859 156.74,85.4859 155.5,91.5C 165.553,91.8085 175.553,91.4752 185.5,90.5C 185.833,90.1667 186.167,89.8333 186.5,89.5C 185.295,87.2073 184.628,84.7073 184.5,82C 184.533,79.3897 185.2,77.223 186.5,75.5C 187.19,80.233 187.856,85.0664 188.5,90C 187.646,91.0217 186.646,91.8551 185.5,92.5C 184.506,97.456 184.173,102.456 184.5,107.5C 186.833,107.5 189.167,107.5 191.5,107.5C 191.5,110.833 191.5,114.167 191.5,117.5C 188.5,117.5 185.5,117.5 182.5,117.5C 182.5,114.5 182.5,111.5 182.5,108.5C 183.488,103.36 183.821,98.0262 183.5,92.5C 175.167,92.5 166.833,92.5 158.5,92.5C 158.5,97.8333 158.5,103.167 158.5,108.5C 158.5,111.5 158.5,114.5 158.5,117.5C 157.561,114.894 155.894,112.894 153.5,111.5C 153.167,111.5 152.833,111.5 152.5,111.5C 152.638,107.307 150.638,104.973 146.5,104.5C 144.545,96.1292 147.879,93.1292 156.5,95.5C 155.821,93.3318 154.821,91.3318 153.5,89.5C 154.754,84.35 154.754,79.35 153.5,74.5C 155.284,72.5895 156.284,70.2562 156.5,67.5C 155.325,67.719 154.325,67.3857 153.5,66.5C 153.234,63.3498 152.234,60.6832 150.5,58.5C 150.762,57.0222 150.429,55.6888 149.5,54.5C 146.732,52.5717 145.898,49.905 147,46.5C 147.925,42.3986 150.425,40.3986 154.5,40.5 Z"/></g>
<g><path style="opacity:1" fill="#8fa4b4" d="M 172.5,56.5 C 174.167,56.5 175.833,56.5 177.5,56.5C 177.5,58.8333 177.5,61.1667 177.5,63.5C 175.833,63.5 174.167,63.5 172.5,63.5C 172.5,61.1667 172.5,58.8333 172.5,56.5 Z"/></g>
<g><path style="opacity:1" fill="#b0bec8" d="M 160.5,56.5 C 162.167,56.5 163.833,56.5 165.5,56.5C 165.5,58.8333 165.5,61.1667 165.5,63.5C 164.167,63.5 162.833,63.5 161.5,63.5C 161.326,61.139 160.993,58.8056 160.5,56.5 Z"/></g>
<g><path style="opacity:1" fill="#839aab" d="M 178.5,56.5 C 179.978,56.238 181.311,56.5713 182.5,57.5C 181.652,59.4086 181.318,61.4086 181.5,63.5C 180.5,63.5 179.5,63.5 178.5,63.5C 178.5,61.1667 178.5,58.8333 178.5,56.5 Z"/></g>
<g><path style="opacity:1" fill="#b0bac8" d="M 166.5,56.5 C 168.167,56.5 169.833,56.5 171.5,56.5C 171.5,58.8333 171.5,61.1667 171.5,63.5C 170.167,63.5 168.833,63.5 167.5,63.5C 167.326,61.139 166.993,58.8056 166.5,56.5 Z"/></g>
<g><path style="opacity:1" fill="#879aa9" d="M 183.5,56.5 C 185.344,58.2789 186.01,60.6122 185.5,63.5C 184.5,63.5 183.5,63.5 182.5,63.5C 182.993,61.1944 183.326,58.861 183.5,56.5 Z"/></g>
<g><path style="opacity:1" fill="#b0bbca" d="M 187.5,52.5 C 185.585,52.2155 183.919,52.5489 182.5,53.5C 172.81,53.8318 163.144,53.4984 153.5,52.5C 164.993,51.176 176.326,51.176 187.5,52.5 Z"/></g>
<g><path style="opacity:1" fill="#040404" d="M -0.5,48.5 C -0.5,48.1667 -0.5,47.8333 -0.5,47.5C 15.8683,46.8486 31.8683,47.5152 47.5,49.5C 47.5,59.5 47.5,69.5 47.5,79.5C 31.5476,80.4699 15.5476,80.8033 -0.5,80.5C -0.5,79.8333 -0.5,79.1667 -0.5,78.5C 15.1667,78.5 30.8333,78.5 46.5,78.5C 46.5,68.5 46.5,58.5 46.5,48.5C 30.8333,48.5 15.1667,48.5 -0.5,48.5 Z"/></g>
<g><path style="opacity:1" fill="#d8edfc" d="M 65.5,77.5 C 70.5569,78.5787 75.5569,79.9121 80.5,81.5C 80.7035,83.3904 80.0368,84.8904 78.5,86C 72.1413,87.7562 65.8079,87.7562 59.5,86C 57.842,85.2747 57.342,84.108 58,82.5C 59.9133,79.7197 62.4133,78.053 65.5,77.5 Z"/></g>
<g><path style="opacity:1" fill="#b0b3b5" d="M 47.5,79.5 C 48.1667,79.5 48.5,79.8333 48.5,80.5C 32.244,81.4845 15.9107,81.8178 -0.5,81.5C -0.5,81.1667 -0.5,80.8333 -0.5,80.5C 15.5476,80.8033 31.5476,80.4699 47.5,79.5 Z"/></g>
<g><path style="opacity:1" fill="#010102" d="M 50.5,48.5 C 50.6665,59.505 50.4998,70.505 50,81.5C 48.3005,82.4061 46.4672,82.7394 44.5,82.5C 41.5,82.5 38.5,82.5 35.5,82.5C 34.1667,82.5 32.8333,82.5 31.5,82.5C 20.8333,82.5 10.1667,82.5 -0.5,82.5C -0.5,82.1667 -0.5,81.8333 -0.5,81.5C 15.9107,81.8178 32.244,81.4845 48.5,80.5C 49.4942,70.3468 49.8276,60.0135 49.5,49.5C 49.5,48.8333 49.8333,48.5 50.5,48.5 Z"/></g>
<g><path style="opacity:1" fill="#add5f6" d="M -0.5,82.5 C 10.1667,82.5 20.8333,82.5 31.5,82.5C 31.5,85.1667 31.5,87.8333 31.5,90.5C 22.253,92.29 14.253,96.4567 7.5,103C 4.85397,103.497 2.1873,103.664 -0.5,103.5C -0.5,96.5 -0.5,89.5 -0.5,82.5 Z"/></g>
<g><path style="opacity:1" fill="#626571" d="M 125.5,-0.5 C 126.5,-0.5 127.5,-0.5 128.5,-0.5C 128.5,13.5 128.5,27.5 128.5,41.5C 128.5,45.1667 128.5,48.8333 128.5,52.5C 128.5,59.5 128.5,66.5 128.5,73.5C 128.5,81.5 128.5,89.5 128.5,97.5C 128.5,100.5 128.5,103.5 128.5,106.5C 127.791,107.404 126.791,107.737 125.5,107.5C 125.5,89.8333 125.5,72.1667 125.5,54.5C 125.5,50.1667 125.5,45.8333 125.5,41.5C 125.5,27.5 125.5,13.5 125.5,-0.5 Z"/></g>
<g><path style="opacity:1" fill="#fafbfb" d="M 35.5,82.5 C 38.5,82.5 41.5,82.5 44.5,82.5C 44.5,84.8333 44.5,87.1667 44.5,89.5C 55.4503,90.4774 65.1169,94.4774 73.5,101.5C 73.6107,102.117 73.944,102.617 74.5,103C 77.7928,103.826 81.1262,104.326 84.5,104.5C 86.861,104.674 89.1944,105.007 91.5,105.5C 93.6469,106.932 93.9802,108.765 92.5,111C 89.1182,111.176 85.7848,111.676 82.5,112.5C 86.4722,119.083 89.4722,126.083 91.5,133.5C 93.396,134.466 95.396,134.799 97.5,134.5C 95.8483,139.341 95.1817,144.341 95.5,149.5C 75.5,149.5 55.5,149.5 35.5,149.5C 35.5,141.167 35.5,132.833 35.5,124.5C 44.5,124.5 53.5,124.5 62.5,124.5C 61.6419,118.925 59.9752,113.592 57.5,108.5C 50.1968,107.503 42.8635,107.169 35.5,107.5C 35.5,99.1667 35.5,90.8333 35.5,82.5 Z"/></g>
<g><path style="opacity:1" fill="#b3dafa" d="M 153.5,74.5 C 154.754,79.35 154.754,84.35 153.5,89.5C 154.821,91.3318 155.821,93.3318 156.5,95.5C 147.879,93.1292 144.545,96.1292 146.5,104.5C 145.29,104.932 144.29,105.599 143.5,106.5C 142.508,106.672 141.842,106.338 141.5,105.5C 139.989,103.559 137.989,103.059 135.5,104C 133.944,104.72 132.944,105.887 132.5,107.5C 132.167,107.5 131.833,107.5 131.5,107.5C 130.791,106.596 129.791,106.263 128.5,106.5C 128.5,103.5 128.5,100.5 128.5,97.5C 135.668,91.1683 143.001,85.0016 150.5,79C 152.141,77.871 153.141,76.371 153.5,74.5 Z"/></g>
<g><path style="opacity:1" fill="#fbfbfc" d="M 31.5,90.5 C 31.5,96.1667 31.5,101.833 31.5,107.5C 29.5328,107.261 27.6995,107.594 26,108.5C 24.4537,113.73 23.6204,119.063 23.5,124.5C 26.1667,124.5 28.8333,124.5 31.5,124.5C 31.5,132.833 31.5,141.167 31.5,149.5C 20.8333,149.5 10.1667,149.5 -0.5,149.5C -0.5,134.167 -0.5,118.833 -0.5,103.5C 2.1873,103.664 4.85397,103.497 7.5,103C 14.253,96.4567 22.253,92.29 31.5,90.5 Z"/></g>
<g><path style="opacity:1" fill="#fcfcfc" d="M 182.5,108.5 C 174.5,108.5 166.5,108.5 158.5,108.5C 158.5,103.167 158.5,97.8333 158.5,92.5C 166.833,92.5 175.167,92.5 183.5,92.5C 183.821,98.0262 183.488,103.36 182.5,108.5 Z"/></g>
<g><path style="opacity:1" fill="#cde7fb" d="M 124.5,54.5 C 124.833,54.5 125.167,54.5 125.5,54.5C 125.5,72.1667 125.5,89.8333 125.5,107.5C 121.031,111.981 120.365,116.981 123.5,122.5C 123.61,124.374 122.944,125.874 121.5,127C 118.382,127.873 115.382,129.039 112.5,130.5C 111.863,126.938 111.53,123.438 111.5,120C 108.833,119.333 106.167,119.333 103.5,120C 102.944,120.383 102.611,120.883 102.5,121.5C 102.194,124.945 102.194,128.611 102.5,132.5C 102.167,132.5 101.833,132.5 101.5,132.5C 99.9382,132.733 98.6049,133.4 97.5,134.5C 95.396,134.799 93.396,134.466 91.5,133.5C 89.4722,126.083 86.4722,119.083 82.5,112.5C 85.7848,111.676 89.1182,111.176 92.5,111C 93.9802,108.765 93.6469,106.932 91.5,105.5C 91.5,104.5 91.5,103.5 91.5,102.5C 92.552,102.649 93.552,102.483 94.5,102C 103.376,94.1218 112.543,86.6218 122,79.5C 124.295,76.1677 124.961,72.501 124,68.5C 109.409,79.8796 94.909,91.3796 80.5,103C 82.0581,103.21 83.3915,103.71 84.5,104.5C 81.1262,104.326 77.7928,103.826 74.5,103C 73.944,102.617 73.6107,102.117 73.5,101.5C 90.8454,89.8161 107.512,77.1494 123.5,63.5C 124.477,60.7131 124.81,57.7131 124.5,54.5 Z"/></g>
<g><path style="opacity:1" fill="#141113" d="M 141.5,105.5 C 140.305,105.322 139.138,104.989 138,104.5C 136.016,105.339 134.183,106.339 132.5,107.5C 132.944,105.887 133.944,104.72 135.5,104C 137.989,103.059 139.989,103.559 141.5,105.5 Z"/></g>
<g><path style="opacity:1" fill="#becadc" d="M 17.5,107.5 C 19.8333,107.5 22.1667,107.5 24.5,107.5C 23.1144,113.095 22.1144,118.762 21.5,124.5C 12.1136,126.62 8.94693,123.287 12,114.5C 12.9668,111.379 14.8001,109.046 17.5,107.5 Z"/></g>
<g><path style="opacity:1" fill="#c0cddf" d="M 35.5,107.5 C 42.8635,107.169 50.1968,107.503 57.5,108.5C 59.9752,113.592 61.6419,118.925 62.5,124.5C 53.5,124.5 44.5,124.5 35.5,124.5C 35.5,118.833 35.5,113.167 35.5,107.5 Z"/></g>
<g><path style="opacity:1" fill="#140b0e" d="M 146.5,104.5 C 150.638,104.973 152.638,107.307 152.5,111.5C 151.781,109.909 150.781,108.409 149.5,107C 147.209,106.775 145.209,106.608 143.5,106.5C 144.29,105.599 145.29,104.932 146.5,104.5 Z"/></g>
<g><path style="opacity:1" fill="#e2b49b" d="M 158.5,108.5 C 166.5,108.5 174.5,108.5 182.5,108.5C 182.5,111.5 182.5,114.5 182.5,117.5C 179.094,117.956 175.761,118.622 172.5,119.5C 169.375,118.521 166.042,118.187 162.5,118.5C 160.901,118.768 159.568,118.434 158.5,117.5C 158.5,114.5 158.5,111.5 158.5,108.5 Z"/></g>
<g><path style="opacity:1" fill="#bec9dd" d="M 31.5,107.5 C 31.5,113.167 31.5,118.833 31.5,124.5C 28.8333,124.5 26.1667,124.5 23.5,124.5C 23.6204,119.063 24.4537,113.73 26,108.5C 27.6995,107.594 29.5328,107.261 31.5,107.5 Z"/></g>
<g><path style="opacity:1" fill="#63656a" d="M 31.5,82.5 C 32.8333,82.5 34.1667,82.5 35.5,82.5C 35.5,90.8333 35.5,99.1667 35.5,107.5C 35.5,113.167 35.5,118.833 35.5,124.5C 35.5,132.833 35.5,141.167 35.5,149.5C 34.1667,149.5 32.8333,149.5 31.5,149.5C 31.5,141.167 31.5,132.833 31.5,124.5C 31.5,118.833 31.5,113.167 31.5,107.5C 31.5,101.833 31.5,96.1667 31.5,90.5C 31.5,87.8333 31.5,85.1667 31.5,82.5 Z"/></g>
<g><path style="opacity:1" fill="#c4cfdf" d="M 58.5,108.5 C 64.7561,106.513 68.9228,108.847 71,115.5C 73.0027,122.327 70.5027,125.327 63.5,124.5C 63.0125,118.709 61.3459,113.376 58.5,108.5 Z"/></g>
<g><path style="opacity:1" fill="#150e0d" d="M 154.5,114.5 C 154.5,115.167 154.5,115.833 154.5,116.5C 145.146,116.452 135.812,115.452 126.5,113.5C 130.307,112.968 134.307,112.968 138.5,113.5C 138.281,112.325 138.614,111.325 139.5,110.5C 140.429,111.689 140.762,113.022 140.5,114.5C 145.236,115.098 149.902,115.098 154.5,114.5 Z"/></g>
<g><path style="opacity:1" fill="#fbf2e1" d="M 126.5,113.5 C 135.812,115.452 145.146,116.452 154.5,116.5C 154.418,120.585 152.418,123.252 148.5,124.5C 147.873,125.417 147.539,126.417 147.5,127.5C 146.772,129.735 145.439,131.568 143.5,133C 140.305,133.181 137.305,133.681 134.5,134.5C 132.938,134.733 131.605,135.4 130.5,136.5C 129.007,135.688 128.34,134.355 128.5,132.5C 129.141,129.051 130.474,125.884 132.5,123C 129.093,121.261 126.76,118.594 125.5,115C 125.57,114.235 125.903,113.735 126.5,113.5 Z"/></g>
<g><path style="opacity:1" fill="#120d0e" d="M 153.5,111.5 C 155.894,112.894 157.561,114.894 158.5,117.5C 159.568,118.434 160.901,118.768 162.5,118.5C 164.075,120.547 165.075,122.881 165.5,125.5C 165.852,144.086 166.852,144.086 168.5,125.5C 168.402,123.447 169.069,121.78 170.5,120.5C 171.338,120.842 171.672,121.508 171.5,122.5C 170.732,123.263 170.232,124.263 170,125.5C 169.5,133.493 169.334,141.493 169.5,149.5C 169.107,151.284 168.441,152.95 167.5,154.5C 165.976,156.408 164.643,158.575 163.5,161C 158.113,161.784 152.78,161.618 147.5,160.5C 146.5,160.833 145.833,161.5 145.5,162.5C 160.819,163.499 176.152,163.833 191.5,163.5C 191.5,163.833 191.5,164.167 191.5,164.5C 176.152,164.167 160.819,164.501 145.5,165.5C 144.82,166.86 144.153,168.193 143.5,169.5C 140.482,169.704 137.482,170.037 134.5,170.5C 134.21,167.205 132.543,165.205 129.5,164.5C 129.67,165.822 129.337,166.989 128.5,168C 126.389,168.845 124.389,169.678 122.5,170.5C 121.5,170.5 120.5,170.5 119.5,170.5C 119.649,169.448 119.483,168.448 119,167.5C 113.529,170.712 108.029,171.046 102.5,168.5C 102.234,162.167 101.9,155.834 101.5,149.5C 101.316,144.893 101.983,140.56 103.5,136.5C 101.867,147.299 102.367,157.965 105,168.5C 104.808,162.364 104.308,156.197 103.5,150C 103.944,145.322 104.611,140.822 105.5,136.5C 105.296,146.86 105.629,157.194 106.5,167.5C 110.595,168.989 114.595,168.489 118.5,166C 116.543,161.024 116.043,155.857 117,150.5C 117.383,149.944 117.883,149.611 118.5,149.5C 116.856,155.824 117.689,161.824 121,167.5C 123.081,168.333 125.248,168.333 127.5,167.5C 127.211,164.351 127.711,161.351 129,158.5C 129.414,158.957 129.914,159.291 130.5,159.5C 131.646,156.721 132.979,154.054 134.5,151.5C 133.238,156.823 133.238,162.49 134.5,168.5C 137.545,168.492 140.545,168.159 143.5,167.5C 143.642,163.944 144.476,160.61 146,157.5C 146.333,158.167 146.667,158.833 147,159.5C 151.642,157.463 156.475,155.963 161.5,155C 169.222,151.31 169.389,147.144 162,142.5C 162.112,144.178 162.612,145.845 163.5,147.5C 163.487,149.867 162.32,151.2 160,151.5C 152.615,149.857 145.115,148.357 137.5,147C 131.226,145.923 128.893,142.423 130.5,136.5C 131.605,135.4 132.938,134.733 134.5,134.5C 137.305,133.681 140.305,133.181 143.5,133C 145.439,131.568 146.772,129.735 147.5,127.5C 148.573,128.251 148.74,129.251 148,130.5C 145.843,133.656 143.343,136.489 140.5,139C 145.471,142.508 150.138,142.008 154.5,137.5C 157.834,138.561 159.334,140.895 159,144.5C 159.591,137.861 158.425,131.528 155.5,125.5C 154.02,124.887 152.687,124.554 151.5,124.5C 156.152,121.944 157.152,118.611 154.5,114.5C 154.443,113.391 154.11,112.391 153.5,111.5 Z"/></g>
<g><path style="opacity:1" fill="#111214" d="M 182.5,117.5 C 185.5,117.5 188.5,117.5 191.5,117.5C 191.5,118.167 191.5,118.833 191.5,119.5C 184.957,119.706 178.623,119.706 172.5,119.5C 175.761,118.622 179.094,117.956 182.5,117.5 Z"/></g>
<g><path style="opacity:1" fill="#fafbfa" d="M 162.5,118.5 C 166.042,118.187 169.375,118.521 172.5,119.5C 171.508,119.328 170.842,119.662 170.5,120.5C 169.069,121.78 168.402,123.447 168.5,125.5C 167.5,125.5 166.5,125.5 165.5,125.5C 165.075,122.881 164.075,120.547 162.5,118.5 Z"/></g>
<g><path style="opacity:1" fill="#477553" d="M 157.5,119.5 C 159.993,119.329 161.826,120.329 163,122.5C 163.667,128.833 163.667,135.167 163,141.5C 162.333,140.833 161.667,140.167 161,139.5C 160.308,133.545 158.475,128.045 155.5,123C 156.305,121.887 156.972,120.721 157.5,119.5 Z"/></g>
<g><path style="opacity:1" fill="#598862" d="M 170.5,120.5 C 170.842,119.662 171.508,119.328 172.5,119.5C 178.623,119.706 184.957,119.706 191.5,119.5C 191.5,128.833 191.5,138.167 191.5,147.5C 184.91,147.811 178.41,147.478 172,146.5C 171.192,144.577 170.692,142.577 170.5,140.5C 171.365,134.532 171.698,128.532 171.5,122.5C 171.672,121.508 171.338,120.842 170.5,120.5 Z"/></g>
<g><path style="opacity:1" fill="#171415" d="M 128.5,106.5 C 129.791,106.263 130.791,106.596 131.5,107.5C 120.509,111.31 119.843,116.477 129.5,123C 126.441,124.057 123.941,125.891 122,128.5C 117.779,129.357 114.279,131.357 111.5,134.5C 113.549,137.147 116.216,137.981 119.5,137C 121.688,134.805 123.521,132.305 125,129.5C 123.265,135.538 121.431,141.538 119.5,147.5C 119.508,144.455 119.841,141.455 120.5,138.5C 117.43,138.632 114.43,138.299 111.5,137.5C 110.496,136.317 109.662,134.984 109,133.5C 107.887,134.305 106.721,134.972 105.5,135.5C 105.5,134.833 105.167,134.5 104.5,134.5C 105.66,132.797 104.993,132.131 102.5,132.5C 102.194,128.611 102.194,124.945 102.5,121.5C 102.611,120.883 102.944,120.383 103.5,120C 106.167,119.333 108.833,119.333 111.5,120C 111.53,123.438 111.863,126.938 112.5,130.5C 115.382,129.039 118.382,127.873 121.5,127C 122.944,125.874 123.61,124.374 123.5,122.5C 120.365,116.981 121.031,111.981 125.5,107.5C 126.791,107.737 127.791,107.404 128.5,106.5 Z"/></g>
<g><path style="opacity:1" fill="#e9d687" d="M 102.5,121.5 C 105.65,120.074 108.65,120.241 111.5,122C 109.153,122.436 106.819,122.936 104.5,123.5C 103.287,123.253 102.62,122.586 102.5,121.5 Z"/></g>
<g><path style="opacity:1" fill="#7f8f9b" d="M 105.5,124.5 C 106.725,125.152 107.392,126.319 107.5,128C 107.167,129.167 106.833,130.333 106.5,131.5C 105.526,129.257 105.192,126.924 105.5,124.5 Z"/></g>
<g><path style="opacity:1" fill="#e2bfad" d="M 165.5,125.5 C 166.5,125.5 167.5,125.5 168.5,125.5C 166.852,144.086 165.852,144.086 165.5,125.5 Z"/></g>
<g><path style="opacity:1" fill="#e8acaf" d="M 154.5,114.5 C 157.152,118.611 156.152,121.944 151.5,124.5C 152.687,124.554 154.02,124.887 155.5,125.5C 158.425,131.528 159.591,137.861 159,144.5C 159.334,140.895 157.834,138.561 154.5,137.5C 150.138,142.008 145.471,142.508 140.5,139C 143.343,136.489 145.843,133.656 148,130.5C 148.74,129.251 148.573,128.251 147.5,127.5C 147.539,126.417 147.873,125.417 148.5,124.5C 152.418,123.252 154.418,120.585 154.5,116.5C 154.5,115.833 154.5,115.167 154.5,114.5 Z"/></g>
<g><path style="opacity:1" fill="#080808" d="M 101.5,132.5 C 100.164,134.01 98.9973,135.677 98,137.5C 97.1759,147.212 97.5093,156.879 99,166.5C 99.7083,167.381 100.542,168.047 101.5,168.5C 100.458,169.791 99.2917,169.791 98,168.5C 96.9405,162.519 95.9405,156.519 95,150.5C 63.24,151.496 31.4067,151.829 -0.5,151.5C -0.5,150.833 -0.5,150.167 -0.5,149.5C 10.1667,149.5 20.8333,149.5 31.5,149.5C 32.8333,149.5 34.1667,149.5 35.5,149.5C 55.5,149.5 75.5,149.5 95.5,149.5C 95.1817,144.341 95.8483,139.341 97.5,134.5C 98.6049,133.4 99.9382,132.733 101.5,132.5 Z"/></g>
<g><path style="opacity:1" fill="#f9e170" d="M 111.5,137.5 C 111.5,138.167 111.5,138.833 111.5,139.5C 111.5,144.5 111.5,149.5 111.5,154.5C 111.5,158.833 111.5,163.167 111.5,167.5C 109.833,167.5 108.167,167.5 106.5,167.5C 105.629,157.194 105.296,146.86 105.5,136.5C 105.5,136.167 105.5,135.833 105.5,135.5C 106.721,134.972 107.887,134.305 109,133.5C 109.662,134.984 110.496,136.317 111.5,137.5 Z"/></g>
<g><path style="opacity:1" fill="#f4dc73" d="M 101.5,132.5 C 101.833,132.5 102.167,132.5 102.5,132.5C 104.993,132.131 105.66,132.797 104.5,134.5C 104.167,135.167 103.833,135.833 103.5,136.5C 101.983,140.56 101.316,144.893 101.5,149.5C 101.9,155.834 102.234,162.167 102.5,168.5C 102.167,168.5 101.833,168.5 101.5,168.5C 100.542,168.047 99.7083,167.381 99,166.5C 97.5093,156.879 97.1759,147.212 98,137.5C 98.9973,135.677 100.164,134.01 101.5,132.5 Z"/></g>
<g><path style="opacity:1" fill="#100803" d="M 111.5,139.5 C 113.321,148.282 113.821,157.282 113,166.5C 112.824,162.312 112.324,158.312 111.5,154.5C 111.5,149.5 111.5,144.5 111.5,139.5 Z"/></g>
<g><path style="opacity:1" fill="#91bde1" d="M 134.5,134.5 C 136.857,134.337 139.19,134.503 141.5,135C 140.167,135.667 138.833,136.333 137.5,137C 139.136,138.434 140.136,140.267 140.5,142.5C 139.289,143.72 139.289,144.887 140.5,146C 138.08,145.975 135.747,145.309 133.5,144C 138.859,141.803 138.526,140.303 132.5,139.5C 132.649,140.552 132.483,141.552 132,142.5C 130.643,138.857 131.81,136.69 135.5,136C 134.944,135.617 134.611,135.117 134.5,134.5 Z"/></g>
<g><path style="opacity:1" fill="#bbab65" d="M 111.5,137.5 C 114.43,138.299 117.43,138.632 120.5,138.5C 119.841,141.455 119.508,144.455 119.5,147.5C 118.662,147.842 118.328,148.508 118.5,149.5C 117.883,149.611 117.383,149.944 117,150.5C 116.043,155.857 116.543,161.024 118.5,166C 114.595,168.489 110.595,168.989 106.5,167.5C 108.167,167.5 109.833,167.5 111.5,167.5C 111.5,163.167 111.5,158.833 111.5,154.5C 112.324,158.312 112.824,162.312 113,166.5C 113.821,157.282 113.321,148.282 111.5,139.5C 111.5,138.833 111.5,138.167 111.5,137.5 Z"/></g>
<g><path style="opacity:1" fill="#b9bbba" d="M 164.5,142.5 C 165.568,141.566 166.901,141.232 168.5,141.5C 168.657,142.873 168.49,144.207 168,145.5C 166.961,144.29 165.794,143.29 164.5,142.5 Z"/></g>
<g><path style="opacity:1" fill="#8b7e59" d="M 104.5,134.5 C 105.167,134.5 105.5,134.833 105.5,135.5C 105.5,135.833 105.5,136.167 105.5,136.5C 104.611,140.822 103.944,145.322 103.5,150C 104.308,156.197 104.808,162.364 105,168.5C 102.367,157.965 101.867,147.299 103.5,136.5C 103.833,135.833 104.167,135.167 104.5,134.5 Z"/></g>
<g><path style="opacity:1" fill="#89bce4" d="M 151.5,141.5 C 154.624,141.943 156.957,143.61 158.5,146.5C 153.533,147.662 148.533,147.829 143.5,147C 141.519,146.395 141.185,145.395 142.5,144C 145.851,143.943 148.851,143.109 151.5,141.5 Z"/></g>
<g><path style="opacity:1" fill="#2a4932" d="M 171.5,122.5 C 171.698,128.532 171.365,134.532 170.5,140.5C 170.692,142.577 171.192,144.577 172,146.5C 178.41,147.478 184.91,147.811 191.5,147.5C 191.5,148.5 191.5,149.5 191.5,150.5C 184.08,150.797 176.746,150.464 169.5,149.5C 169.334,141.493 169.5,133.493 170,125.5C 170.232,124.263 170.732,123.263 171.5,122.5 Z"/></g>
<g><path style="opacity:1" fill="#eaadb0" d="M 141.5,105.5 C 141.842,106.338 142.508,106.672 143.5,106.5C 145.209,106.608 147.209,106.775 149.5,107C 150.781,108.409 151.781,109.909 152.5,111.5C 152.833,111.5 153.167,111.5 153.5,111.5C 154.11,112.391 154.443,113.391 154.5,114.5C 149.902,115.098 145.236,115.098 140.5,114.5C 140.762,113.022 140.429,111.689 139.5,110.5C 138.614,111.325 138.281,112.325 138.5,113.5C 134.307,112.968 130.307,112.968 126.5,113.5C 125.903,113.735 125.57,114.235 125.5,115C 126.76,118.594 129.093,121.261 132.5,123C 130.474,125.884 129.141,129.051 128.5,132.5C 128.34,134.355 129.007,135.688 130.5,136.5C 128.893,142.423 131.226,145.923 137.5,147C 145.115,148.357 152.615,149.857 160,151.5C 162.32,151.2 163.487,149.867 163.5,147.5C 162.612,145.845 162.112,144.178 162,142.5C 169.389,147.144 169.222,151.31 161.5,155C 156.475,155.963 151.642,157.463 147,159.5C 146.667,158.833 146.333,158.167 146,157.5C 144.476,160.61 143.642,163.944 143.5,167.5C 140.545,168.159 137.545,168.492 134.5,168.5C 133.238,162.49 133.238,156.823 134.5,151.5C 132.979,154.054 131.646,156.721 130.5,159.5C 129.914,159.291 129.414,158.957 129,158.5C 127.711,161.351 127.211,164.351 127.5,167.5C 125.248,168.333 123.081,168.333 121,167.5C 117.689,161.824 116.856,155.824 118.5,149.5C 118.328,148.508 118.662,147.842 119.5,147.5C 121.431,141.538 123.265,135.538 125,129.5C 123.521,132.305 121.688,134.805 119.5,137C 116.216,137.981 113.549,137.147 111.5,134.5C 114.279,131.357 117.779,129.357 122,128.5C 123.941,125.891 126.441,124.057 129.5,123C 119.843,116.477 120.509,111.31 131.5,107.5C 131.833,107.5 132.167,107.5 132.5,107.5C 134.183,106.339 136.016,105.339 138,104.5C 139.138,104.989 140.305,105.322 141.5,105.5 Z"/></g>
<g><path style="opacity:1" fill="#c98492" d="M 158.5,149.5 C 159.251,148.427 160.251,148.26 161.5,149C 160.648,150.728 159.648,150.895 158.5,149.5 Z"/></g>
<g><path style="opacity:1" fill="#010000" d="M 142.5,111.5 C 144.337,111.639 144.67,112.306 143.5,113.5C 142.702,113.043 142.369,112.376 142.5,111.5 Z"/></g>
<g><path style="opacity:0.998" fill="#b7b7b7" d="M 101.5,168.5 C 101.833,168.5 102.167,168.5 102.5,168.5C 108.029,171.046 113.529,170.712 119,167.5C 119.483,168.448 119.649,169.448 119.5,170.5C 120.5,170.5 121.5,170.5 122.5,170.5C 126.5,170.5 130.5,170.5 134.5,170.5C 137.482,170.037 140.482,169.704 143.5,169.5C 159.465,168.545 175.465,168.212 191.5,168.5C 191.5,174.833 191.5,181.167 191.5,187.5C 189.833,188.5 188.5,189.833 187.5,191.5C 126.167,191.5 64.8333,191.5 3.5,191.5C 2.5,189.833 1.16667,188.5 -0.5,187.5C -0.5,175.5 -0.5,163.5 -0.5,151.5C 31.4067,151.829 63.24,151.496 95,150.5C 95.9405,156.519 96.9405,162.519 98,168.5C 99.2917,169.791 100.458,169.791 101.5,168.5 Z"/></g>
<g><path style="opacity:1" fill="#040705" d="M 191.5,152.5 C 191.5,153.167 191.5,153.833 191.5,154.5C 163.722,152.057 163.722,151.391 191.5,152.5 Z"/></g>
<g><path style="opacity:1" fill="#5f8366" d="M 169.5,149.5 C 176.746,150.464 184.08,150.797 191.5,150.5C 191.5,151.167 191.5,151.833 191.5,152.5C 163.722,151.391 163.722,152.057 191.5,154.5C 191.5,156.5 191.5,158.5 191.5,160.5C 184.124,160.726 176.791,160.392 169.5,159.5C 169.923,157.219 169.256,155.552 167.5,154.5C 168.441,152.95 169.107,151.284 169.5,149.5 Z"/></g>
<g><path style="opacity:1" fill="#2e5a3d" d="M 163.5,155.5 C 164.791,156.542 164.791,157.708 163.5,159C 160.167,159.667 156.833,159.667 153.5,159C 157.052,158.122 160.386,156.956 163.5,155.5 Z"/></g>
<g><path style="opacity:1" fill="#070908" d="M 167.5,154.5 C 169.256,155.552 169.923,157.219 169.5,159.5C 176.791,160.392 184.124,160.726 191.5,160.5C 191.5,160.833 191.5,161.167 191.5,161.5C 184.492,161.666 177.492,161.5 170.5,161C 167.855,159.713 166.855,157.547 167.5,154.5 Z"/></g>
<g><path style="opacity:1" fill="#979997" d="M 129.5,160.5 C 130.473,160.987 131.473,161.487 132.5,162C 130.843,162.725 129.843,162.225 129.5,160.5 Z"/></g>
<g><path style="opacity:1" fill="#afaeb1" d="M 167.5,154.5 C 166.855,157.547 167.855,159.713 170.5,161C 177.492,161.5 184.492,161.666 191.5,161.5C 191.5,162.167 191.5,162.833 191.5,163.5C 176.152,163.833 160.819,163.499 145.5,162.5C 145.833,161.5 146.5,160.833 147.5,160.5C 152.78,161.618 158.113,161.784 163.5,161C 164.643,158.575 165.976,156.408 167.5,154.5 Z"/></g>
<g><path style="opacity:1" fill="#848484" d="M 134.5,170.5 C 130.5,170.5 126.5,170.5 122.5,170.5C 124.389,169.678 126.389,168.845 128.5,168C 129.337,166.989 129.67,165.822 129.5,164.5C 132.543,165.205 134.21,167.205 134.5,170.5 Z"/></g>
<g><path style="opacity:1" fill="#7b7b7b" d="M 191.5,164.5 C 191.5,165.833 191.5,167.167 191.5,168.5C 175.465,168.212 159.465,168.545 143.5,169.5C 144.153,168.193 144.82,166.86 145.5,165.5C 160.819,164.501 176.152,164.167 191.5,164.5 Z"/></g>
</svg>
